<?xml version="1.0" standalone="no"?>
<!DOCTYPE svg PUBLIC "-//W3C//DTD SVG 20010904//EN"
 "http://www.w3.org/TR/2001/REC-SVG-20010904/DTD/svg10.dtd">
<svg version="1.0" xmlns="http://www.w3.org/2000/svg"
 width="512.000000pt" height="512.000000pt" viewBox="0 0 512.000000 512.000000"
 preserveAspectRatio="xMidYMid meet">

<g transform="translate(0.000000,512.000000) scale(0.100000,-0.100000)"
fill="#000000" stroke="none">
<path d="M2360 4954 c-169 -20 -220 -28 -320 -50 -169 -37 -366 -106 -525
-184 -261 -127 -442 -257 -650 -465 -209 -209 -339 -391 -465 -650 -109 -224
-177 -444 -217 -700 -25 -154 -25 -536 0 -690 40 -256 108 -476 217 -700 126
-259 256 -441 465 -650 209 -209 391 -339 650 -465 224 -109 444 -177 700
-217 154 -25 536 -25 690 0 256 40 476 108 700 217 259 126 441 256 650 465
209 209 339 391 465 650 109 224 177 444 217 700 25 154 25 536 0 690 -65 415
-218 777 -468 1112 -95 126 -326 357 -452 452 -332 249 -695 402 -1102 467
-96 15 -477 27 -555 18z m408 -354 c375 -40 730 -181 1034 -411 107 -80 307
-280 387 -387 564 -746 561 -1751 -7 -2497 -51 -66 -280 -305 -294 -305 -4 0
-8 610 -8 1355 l0 1355 -29 0 c-66 0 -189 -189 -265 -407 -120 -347 -189 -838
-203 -1449 l-6 -271 54 -25 c73 -33 110 -66 139 -124 35 -68 36 -217 3 -316
-20 -57 -23 -88 -23 -211 l0 -144 -117 -56 c-150 -71 -411 -157 -479 -157 -12
0 -14 73 -14 508 0 496 -1 510 -25 630 -35 180 -41 299 -21 402 28 137 71 217
185 345 64 73 103 162 108 249 3 46 -13 221 -46 506 -28 239 -51 438 -51 442
0 5 -22 8 -50 8 -33 0 -50 -4 -50 -12 0 -7 7 -222 15 -478 8 -256 15 -480 15
-497 l0 -33 -60 0 -60 0 0 510 0 510 -40 0 -40 0 0 -515 0 -515 -50 0 -50 0 0
515 0 515 -45 0 -45 0 -2 -512 -3 -513 -57 -3 c-43 -2 -58 0 -58 10 0 7 7 202
15 433 8 231 15 457 15 503 l0 82 -43 0 -42 0 -54 -432 c-30 -238 -53 -462
-53 -497 2 -113 42 -201 138 -302 189 -200 236 -438 144 -732 -19 -58 -20 -95
-20 -616 l0 -554 -132 6 c-210 9 -424 50 -603 116 l-80 29 -5 473 -6 474 -26
85 c-51 164 -71 325 -57 451 13 113 31 146 103 183 158 84 282 248 338 451 31
113 31 352 0 470 -46 171 -151 327 -270 403 -203 130 -483 86 -647 -101 -183
-209 -233 -591 -115 -876 61 -148 172 -279 290 -341 36 -18 70 -41 77 -49 6
-9 19 -47 29 -85 29 -119 6 -341 -55 -536 -19 -61 -21 -90 -21 -432 0 -223 -4
-368 -9 -368 -21 0 -182 130 -285 230 -178 173 -298 335 -406 550 -140 279
-205 534 -217 845 -17 478 126 930 418 1317 80 107 280 307 387 387 233 176
524 312 794 372 203 45 456 60 656 39z m-1493 -1518 c0 -235 1 -238 29 -317
15 -44 55 -136 87 -204 32 -68 59 -126 59 -128 0 -14 -62 42 -107 97 -80 96
-152 246 -161 337 -10 92 2 214 29 306 18 61 54 147 62 147 1 0 2 -107 2 -238z"/>
</g>
</svg>
